<?xml version="1.0" encoding="utf-8"?>
<!-- Generator: Adobe Illustrator 27.5.0, SVG Export Plug-In . SVG Version: 6.00 Build 0)  -->
<svg version="1.1" id="Capa_1" xmlns="http://www.w3.org/2000/svg" xmlns:xlink="http://www.w3.org/1999/xlink" x="0px" y="0px"
	 viewBox="0 0 2122 2122" style="enable-background:new 0 0 2122 2122;" xml:space="preserve">
<g>
	<path style="fill:#FFCD02;" d="M1709.928,621.427c-93.409-2.602-188.448-18.27-280.001-4.45
		c16.47-33.261,26.531-70.019,30.708-106.965c7.386-65.32-2.351-131.503-18.088-195.327
		c-20.458-82.967-53.133-166.509-115.854-224.545c7.966,92.741-20.664,188.134-78.387,261.159
		c-25.9,32.767-57.167,60.932-83.802,93.106c-86.702,104.726-116.56,248.119-84.933,379.57c1.354,5.624,3.106,13.344,5.362,22.002
		c-5.423,0.625-10.794,1.704-16.027,3.363c-17.805,5.652-48.755,20.955-75.055,39.067
		c-206.348-33.752-434.689,84.811-555.534,306.611c-80.468,147.688-96.626,310.65-57.04,448.825
		c27.262,95.128,80.955,178.534,158.272,237.125c0.124,1.109,0.21,2.232,0.334,3.342c2.977,28.96,6.363,59.148,22.207,83.62
		c21.852,33.72,67.303,50.007,105.595,37.871c18.938-6.007,52.758-22.941,80.051-42.563
		c199.956,21.45,415.741-96.382,532.004-309.773c83.971-154.117,97.932-324.84,51.569-466.708
		c-26.029-79.727-71.138-150.328-133.529-203.739c-0.28-4.075-0.668-8.144-1.087-12.158c-2.596-25.379-5.514-51.679-16.834-74.258
		c70.195-25.163,152.788-17.9,227.765-2.515c96.188,19.737,194.236,50.344,290.647,31.737
		c89.255-17.226,167.123-76.57,218.095-151.837c50.972-75.267,76.862-165.34,86.682-255.71
		C1937.156,603.341,1817.487,624.421,1709.928,621.427z"/>
	<path style="fill:#71922C;" d="M1709.928,621.427c-93.409-2.602-188.448-18.27-280.001-4.45
		c16.47-33.261,26.531-70.019,30.708-106.965c7.386-65.32-2.351-131.503-18.088-195.327
		c-20.458-82.967-53.133-166.509-115.854-224.545c7.966,92.741-20.664,188.134-78.387,261.159
		c-25.9,32.767-57.167,60.932-83.802,93.106c-86.702,104.726-116.56,248.119-84.933,379.57c1.354,5.624,3.106,13.344,5.362,22.002
		c18.234-2.101,37.055,1.501,53.552,9.705c14.492,7.208,27.195,17.916,36.017,31.531c1.972,3.045,3.749,6.18,5.358,9.389
		c70.195-25.163,152.788-17.9,227.765-2.515c96.188,19.737,194.236,50.344,290.647,31.737
		c89.255-17.226,167.123-76.57,218.095-151.837c50.972-75.267,76.862-165.34,86.682-255.71
		C1937.156,603.341,1817.487,624.421,1709.928,621.427z"/>
	<path style="fill:#8CB53C;" d="M1709.928,621.427c-93.409-2.602-188.448-18.27-280.001-4.45
		c-13.866,2.093-27.657,4.822-41.345,8.418c-71.556,18.797-136.124,61.303-183.732,117.69
		c-23.912,28.322-43.089,59.993-57.715,94.02c-2.559,5.955-5.614,12.234-8.651,18.576c14.492,7.208,27.195,17.916,36.017,31.531
		c1.972,3.045,3.749,6.18,5.358,9.389c70.195-25.163,152.788-17.9,227.765-2.515c96.188,19.737,194.236,50.344,290.647,31.737
		c89.255-17.226,167.123-76.57,218.095-151.837c50.972-75.267,76.862-165.34,86.682-255.71
		C1937.156,603.341,1817.487,624.421,1709.928,621.427z"/>
	<path style="fill:#FCC00D;" d="M1331.31,1186.756c-0.506,17.128-1.751,33.052-4.453,46.933
		c-32.979,169.359-118.767,328.981-245.483,446.606c-58.504,54.339-130.458,101.797-210.278,102.563
		c-66.999,0.626-130.256-31.754-197.072-37.07c-54.214-4.288-111.208,9.087-161.695-11.092
		c-49.559-19.778-82.819-68.326-131.052-90.855c27.262,95.128,80.955,178.534,158.272,237.125c0.124,1.109,0.21,2.232,0.334,3.342
		c2.977,28.96,6.363,59.148,22.207,83.62c21.852,33.72,67.303,50.007,105.595,37.871c18.938-6.007,52.758-22.941,80.051-42.563
		c199.956,21.45,415.741-96.382,532.004-309.773C1363.712,1499.347,1377.673,1328.624,1331.31,1186.756z"/>
	<path style="fill:#FFE164;" d="M632.926,1152.118c12.599,8.409,29.622,7.388,43.576,1.491s25.618-16.005,37.408-25.515
		c52.568-42.404,112.36-75.832,176.019-98.397c32.37-11.476,75.491-34.278,51.111-75.374c-19.703-33.211-60.202-16.75-89.931-8.689
		c-74.28,20.141-139.783,56.674-196.901,108.358c-14.392,13.021-28.602,27.435-34.938,45.781
		C612.933,1118.118,616.78,1141.346,632.926,1152.118z"/>
	<path style="fill:#FFE164;" d="M867.53,1156.013c4.104-6.485,7.225-13.873,7.152-21.544
		c-0.663-69.995-131.729,45.559-141.674,55.822c-11.194,11.552-22.287,24.312-25.88,39.993
		c-3.591,15.678,3.033,34.833,18.234,40.092c14.455,5.001,30.015-3.927,41.113-14.453c14.697-13.941,25.946-31.188,40.631-45.145
		C826.904,1191.964,852.923,1179.09,867.53,1156.013z"/>
	<path style="fill:#FFE164;" d="M550.688,1184.283c-28.475,22.814-70.419,71.571-70.512,109.876
		c-0.029,12.682,4.726,26.075,15.179,33.254c17.267,11.861,41.844,1.934,55.8-13.686c13.956-15.622,21.669-35.91,34.874-52.17
		c14.87-18.307,37.81-34.38,37.274-57.958C622.395,1163.623,573.165,1166.271,550.688,1184.283z"/>
	<path style="fill:#FCC00D;" d="M1039.428,1609.925c-7.394-2.105-15.22,0.565-22.395,3.33
		c-29.581,11.393-58.826,25.071-90.283,29.008c-26.736,3.347-53.883-0.519-80.765,1.344c-14.68,1.021-30.017,4.115-41.116,13.781
		c-21.157,18.429-16.813,55.111,5.033,71.571c19.03,14.341,52.733,9.542,74.928,7.693c56.076-4.675,110.497-28.638,150.544-68.404
		c8.404-8.346,16.489-17.91,18.77-29.532C1056.426,1627.092,1050.821,1613.17,1039.428,1609.925z"/>
	<path style="fill:#FCC00D;" d="M1052.748,1490.909c-10.821,3.535-20.643,9.635-31.364,13.466
		c-16.37,5.852-34.095,6.188-51.404,7.817c-17.305,1.63-35.26,4.936-49.042,15.53c-25.942,19.942-20.729,59.818,11.232,67.954
		c32.555,8.285,76.755-11.461,102.763-29.339c25.133-17.279,46.996-42.604,50.611-72.889
		C1076.309,1486.787,1063.571,1487.372,1052.748,1490.909z"/>
	<path style="fill:#FCC00D;" d="M1150.148,976.532c-24.236-7.23-48.996-6.913-72.94-16.982
		c-23.591-9.919-40.974-28.794-63.554-39.252c-6.568-3.043-12.672,3.084-9.649,9.649c11.157,24.246,43.388,41.057,66.682,51.235
		c23.52,10.275,53.702,20.669,79.461,15.018C1160.333,993.967,1159.369,979.282,1150.148,976.532z"/>
	<path style="fill:#FFCD02;" d="M669.516,1888.158c-24.115-8.825-51.471-18.758-77.403-18.063c-3.912,0.105-6.027,5.893-2.117,7.817
		c21.086,10.375,44.889,15.128,66.77,23.854c19.208,7.656,44.786,27.651,65.659,25.067c3.432-0.427,5.501-3.459,3.869-6.741
		C717.111,1901.62,688.066,1894.95,669.516,1888.158z"/>
	<path style="fill:#5E782A;" d="M1888.532,663.924c-61.447,91.74-172.984,87.639-272.547,77.011
		c25.173-18.992,51.763-49.165,57.412-77.995c0.726-3.705-3.919-7.289-6.85-3.988c-11.864,13.359-19.601,29.861-30.821,43.839
		c-10.773,13.424-23.177,24.677-35.621,36.394c-12.548-1.416-24.861-2.859-36.778-4.145c-59.096-6.381-119.351-7.693-177.079,8.516
		c-42.027,11.797-99.486,35.751-122.492,75.374c-2.271,3.912,2.307,8.656,6.261,6.261c24.626-14.916,44.645-34.275,71.581-46.132
		c1.422-0.626,2.872-1.183,4.305-1.785c34.406,12.636,69.195,23.156,102.078,40.028c34.48,17.691,64.341,42.999,98.577,60.668
		c2.582,1.333,6.565-1.647,4.433-4.434c-24.387-31.873-63.946-53.379-99.366-70.67c-27.786-13.565-57.144-25.985-87.558-32.541
		c22.302-7.602,45.565-12.51,68.932-15.016c67.822-7.269,134.07,2.926,201.359,10.137c93.712,10.044,217.534,1.932,259.576-99.245
		C1895.28,662.959,1890.286,661.305,1888.532,663.924z"/>
	<path style="fill:#5E782A;" d="M1156.855,746.138c0.018-44.206,15.962-81.075,38.526-114.88
		c30.314-15.056,58.36-34.538,89.065-49.112c31.958-15.172,65.719-25.603,97.425-41.23c3.396-1.674,1.861-7.615-1.973-7.281
		c-35.605,3.092-68.238,16.546-100.244,31.888c-19.999,9.586-40.911,20.198-59.997,32.979c32.136-39.9,69.756-77.245,95.361-120.065
		c12.401-20.74,23.409-44.861,31.85-70.533c6.312-6.676,12.585-13.387,19.541-19.411c11.109-9.617,23.666-17.447,35.384-26.28
		c3.16-2.38,1.452-7.606-2.789-6.619c-16.269,3.778-32.213,13.624-44.686,26.518c13.59-54.526,14.559-113.144-7.729-160.147
		c-2.26-4.77-9.91-2.348-9.768,2.648c1.379,48.711,8.541,94.704-1.172,143.33c-8.134,40.728-24.161,79.134-46.37,113.961
		c2.328-37.102-16.345-85.118-38.792-108.119c-2.202-2.258-6.436,0.034-5.418,3.152c6.789,20.767,17.106,40.042,22.719,61.245
		c5.33,20.136,4.054,41.676,9.486,61.398c-0.938,1.292-1.804,2.628-2.759,3.908c-54.105,72.526-135.44,143.145-124.521,242.652
		C1150.463,750.423,1156.853,750.661,1156.855,746.138z"/>
	<path style="fill:#FFE164;" d="M622.977,1335.857c-17.065,17.313-52.733,71.764-15.461,86.646
		c12.969,5.177,27.822-2.914,36.543-13.815c8.723-10.904,13.544-24.416,21.481-35.905c5.948-8.614,13.685-16.153,17.766-25.796
		C701.918,1302.995,640.054,1318.527,622.977,1335.857z"/>
</g>
</svg>
